# xmcd
#
# Track frame offsets:
#	150
#	15325
#	31315
#	48597
#	61975
#	78690
#	92010
#	114540
#	129010
#	141927
#
# Disc length: 2061 seconds
#
# Revision: 1
# Processed by: cddbd v1.4b41PL1 Copyright (c) Steve Scherf et al.
# Submitted via: audiograbber 1.80
#
DISCID=7b080b0a
DTITLE=Tracey K. Houston - I'm Not The Same Girl
DYEAR=1900
DGENRE=
TTITLE0=The Kind Of Man I Never Find
TTITLE1=Deja Blue
TTITLE2=Middle of the Bed
TTITLE3=I'm Not The Same Girl
TTITLE4=Hot Steamy Night In Dixie
TTITLE5=Count Me Out
TTITLE6=Talking Like Strangers
TTITLE7=The Girl In Oklahoma
TTITLE8=Lonesome
TTITLE9=You're Walkin' and Talkin' ( In My Sleep Again )
EXTD=
EXTT0=
EXTT1=
EXTT2=
EXTT3=
EXTT4=
EXTT5=
EXTT6=
EXTT7=
EXTT8=
EXTT9=
PLAYORDER=
